<svg width="94" height="106" version="1.1" xmlns="http://www.w3.org/2000/svg" desc="Created with imagetracer.js version 1.2.1" ><path fill="rgb(17,17,17)" stroke="rgb(17,17,17)" stroke-width="1" opacity="0.996078431372549" d="M 58.5 12 L 63 13 L 63 57.5 Q 63 58.5 58.5 58 L 54.5 55 L 52.5 55 L 42 55 L 42 51 L 44.5 50 L 57 50 L 57 13.5 L 58.5 12 Z " /><path fill="rgb(17,17,17)" stroke="rgb(17,17,17)" stroke-width="1" opacity="0.996078431372549" d="M 70.5 12 Q 75 11 76 13.5 L 76 56.5 L 74.5 58 Q 70 59 69 56.5 L 69 13.5 L 70.5 12 Z " /><path fill="rgb(17,17,17)" stroke="rgb(17,17,17)" stroke-width="1" opacity="0.996078431372549" d="M 13 13 Q 17.6 11.8 19 14.5 Q 15.8 24.3 25.5 21 L 28.5 13 L 34 14 L 35 17.5 L 34 21 L 40.5 21 L 41.5 22 Q 45.5 20.3 44 14 Q 49.4 12.5 51 15.5 L 51 36.5 L 50 40 L 17.5 40 L 13 35.5 L 13 13 Z M 19 27 L 19 34 L 22 35 L 26 34 Q 28 35 27 29 Q 25 25 19 27 Z M 34 27 L 34 34 Q 36 37 43 35 Q 45 34 44 29 L 43 27 L 34 27 Z " /><path fill="rgb(17,17,17)" stroke="rgb(17,17,17)" stroke-width="1" opacity="0.996078431372549" d="M 46.5 42 L 53 42 L 53 45 L 47.5 47 L 35 48 L 35 58 L 28 58 L 28 48 L 11.5 48 L 10 44.5 L 11.5 43 L 45.5 43 L 46.5 42 Z " /><path fill="rgb(17,17,17)" stroke="rgb(17,17,17)" stroke-width="1" opacity="0.996078431372549" d="M 26.5 61 L 75.5 61 L 76 66 L 32.5 66 L 31 67.5 Q 30.5 72 31.5 72 L 74.5 72 Q 77 73.2 76 77 L 73.5 78 L 31 78 Q 29.8 82.6 32.5 84 L 75.5 84 L 77 85.5 Q 77.8 89.3 75.5 90 L 30.5 90 L 25 86.5 Q 22.4 78.6 24 66.5 L 26.5 61 Z " /></svg>