<svg width="383" height="629" version="1.1" xmlns="http://www.w3.org/2000/svg" desc="Created with imagetracer.js version 1.2.1" ><path fill="rgb(40,40,40)" stroke="rgb(40,40,40)" stroke-width="1" opacity="0.996078431372549" d="M 329.5 25 L 333 28.5 L 332 29.5 L 332 36.5 L 335 45.5 L 335 50.5 L 334 51.5 L 334 64.5 L 331 68.5 L 331 73.5 L 333 75.5 L 333 88.5 L 334 91 L 319.5 95 Q 315.9 91.1 317 82.5 L 314.5 80 L 312 78.5 Q 311.3 76.3 313.5 77 L 315.5 76 L 320.5 77 L 329 75 L 330 72.5 L 330 55.5 L 331 54.5 L 331 48 L 323.5 50 Q 320.7 48.8 323 47.5 L 324.5 45 L 330 44 L 328 38.5 L 329 36.5 L 327 30.5 L 329.5 25 Z M 325 79 L 320 80 L 320 90 L 322 91 L 329 88 L 329 79 L 325 79 Z " /><path fill="rgb(40,40,40)" stroke="rgb(40,40,40)" stroke-width="1" opacity="0.996078431372549" d="M 207 30 Q 210.8 28.5 210 31.5 L 212 39.5 L 212 51.5 L 211 52.5 L 211 68.5 L 209 72.5 L 205 90.5 L 202.5 94 Q 199.1 94.9 201 89.5 L 205 76 L 189.5 80 L 179 80 Q 177.9 77.3 180.5 78 L 181.5 77 L 192.5 76 L 201.5 73 L 207 69.5 Q 205.8 64.8 208 63.5 L 202.5 61 L 191.5 68 L 189.5 65 Q 184.5 68.7 183 75 L 180.5 76 Q 177.3 74.3 181 72.5 L 185 66.5 L 186 60 L 168.5 66 L 167 63 L 189.5 55 L 192.5 55 L 201.5 50 L 205 50 L 203.5 54 L 200.5 54 Q 196.5 57.7 190 58 L 189 63.5 L 190.5 64 L 204.5 56 Q 205.8 58.3 207 55.5 L 209 45.5 L 208 44.5 L 207 30 Z " /><path fill="rgb(40,40,40)" stroke="rgb(40,40,40)" stroke-width="1" opacity="0.996078431372549" d="M 76.5 32 L 79 37.5 Q 77.5 43 80 44.5 L 80 58.5 L 79 59.5 L 79 70.5 L 76.5 73 Q 72.8 74.3 74 70.5 L 76 68.5 L 77 54.5 L 74 53 L 72.5 56 L 61 61.5 L 58 69.5 L 58 74.5 Q 60.7 77.8 60 84.5 L 63.5 88 L 66.5 90 L 69 84.5 L 68 79.5 L 71.5 75 L 73 75.5 L 73 84.5 L 74.5 85 L 83.5 91 L 92 92.5 L 86.5 95 L 71.5 88 Q 68.8 89.3 70 94.5 L 67.5 97 Q 64.3 91.7 57.5 90 L 51.5 97 L 49 95.5 L 56 84.5 L 56 78.5 Q 53.4 77.1 54 72.5 L 57 63 L 54.5 63 L 47.5 68 L 39 69 Q 38.3 65.2 41.5 64 L 49.5 63 L 63.5 55 L 66.5 55 L 70.5 52 Q 75 53 76 50.5 L 77 45.5 L 75 39.5 L 75 33.5 L 76.5 32 Z " /><path fill="rgb(40,40,40)" stroke="rgb(40,40,40)" stroke-width="1" opacity="0.996078431372549" d="M 311.5 34 L 314 35.5 L 311 46 L 324 55.5 Q 325.5 59.9 322.5 59 L 318.5 54 L 310.5 50 L 307.5 50 L 299.5 59 L 295 60 L 297.5 56 L 305 49.5 L 311.5 34 Z " /><path fill="rgb(40,40,40)" stroke="rgb(40,40,40)" stroke-width="1" opacity="0.996078431372549" d="M 187.5 38 Q 194.5 36.5 196 40.5 L 196 48.5 L 190.5 54 L 179.5 57 Q 176.5 55.5 178 49.5 L 179 45.5 L 178 43.5 L 187.5 38 Z M 187 42 L 185 43 L 181 53 L 189 52 Q 193 51 192 44 Q 191 41 187 42 Z " /><path fill="rgb(40,40,40)" stroke="rgb(40,40,40)" stroke-width="1" opacity="0.996078431372549" d="M 62.5 40 L 65 41.5 L 62 55 L 59 53.5 Q 58.4 47.3 61 45 L 45 51 Q 43.5 47.3 46.5 48 L 62.5 40 Z " /><path fill="rgb(40,40,40)" stroke="rgb(40,40,40)" stroke-width="1" opacity="0.996078431372549" d="M 84.5 148 L 87 152.5 L 88 166.5 L 90 168.5 L 91 180.5 L 90 185.5 L 87 188.5 L 83.5 197 Q 80.8 197.6 82 191.5 L 87 185.5 L 86 184.5 L 86 176.5 L 87 174.5 L 84.5 173 L 81 175.5 L 79 187.5 L 76.5 191 Q 73.5 191.9 75 187.5 L 76 186.5 L 77 168.5 L 75 162.5 L 72.5 160 L 71 159.5 L 74.5 155 L 78 157.5 L 80 167.5 L 80 169.5 L 80.5 171 L 85 167.5 L 85 162.5 L 82 150.5 L 84.5 148 Z " /><path fill="rgb(40,40,40)" stroke="rgb(40,40,40)" stroke-width="1" opacity="0.996078431372549" d="M 316.5 158 L 319 159 L 319.5 163 L 327.5 159 L 328 162.5 L 323 173.5 L 323 175.5 L 320 179.5 Q 320.7 186.5 319 190 L 330.5 188 L 339.5 188 Q 341.2 190.8 347.5 189 L 349 190.5 Q 347.5 193.5 341.5 192 L 339 191 L 338.5 189 L 333.5 192 L 316.5 193 L 295.5 199 L 294 195 L 299.5 193 L 301.5 193 L 314.5 191 L 317 188.5 L 316 187.5 L 316 178.5 L 310.5 172 L 301.5 182 L 298 180.5 Q 297.3 178.3 299.5 179 L 306 173.5 L 311 164.5 L 309.5 164 L 298.5 167 Q 295.5 165.5 298.5 164 L 312.5 159 L 314.5 159 L 316.5 158 Z M 319 164 L 315 167 L 312 171 L 320 174 L 321 173 L 322 166 L 319 164 Z " /><path fill="rgb(40,40,40)" stroke="rgb(40,40,40)" stroke-width="1" opacity="0.996078431372549" d="M 64.5 161 L 68 162.5 Q 67.5 169 64 172.5 L 72 179.5 L 70.5 183 L 63.5 177 L 61 177 L 56.5 185 Q 53.9 185.8 55 182.5 L 62 171.5 L 63 166.5 Q 61.8 163.8 60.5 166 L 56 169.5 L 53 176.5 L 50 179.5 L 50 182.5 L 47.5 185 L 43 187 L 54.5 165 L 62.5 163 L 64.5 161 Z " /><path fill="rgb(40,40,40)" stroke="rgb(40,40,40)" stroke-width="1" opacity="0.996078431372549" d="M 200.5 161 L 203 163.5 Q 202 169.5 205 171.5 L 208 194.5 L 205 203.5 L 206 205.5 L 205 207.5 L 205 209.5 L 204 220.5 L 203 223 L 201 222.5 L 201 211.5 L 202 208 L 191.5 210 L 188.5 212 L 184 212 L 185.5 209 L 198.5 205 L 203 201.5 L 204 189 L 199.5 192 L 193.5 193 L 172.5 201 L 169 201 Q 167.5 197.2 170.5 198 L 173.5 196 L 185.5 193 L 190.5 190 L 203 187 L 202 172.5 L 199 162.5 L 200.5 161 Z " /><path fill="rgb(40,40,40)" stroke="rgb(40,40,40)" stroke-width="1" opacity="0.996078431372549" d="M 189 164 Q 191.7 162.9 191 165.5 Q 193.3 166.8 192 171.5 Q 189.5 173 191 178.5 L 192 182.5 L 188.5 187 L 177.5 191 Q 175.3 190.3 176 186.5 Q 178.3 185.2 177 180.5 L 175 175.5 L 175 173.5 L 176 170 L 179 171.5 L 178 177 L 182.5 178 L 189 174.5 L 190 172.5 L 188 169.5 L 189 166.5 L 189 164 Z M 187 179 L 183 181 Q 179 182 180 186 L 188 183 L 188 179 L 187 179 Z " /><path fill="rgb(40,40,40)" stroke="rgb(40,40,40)" stroke-width="1" opacity="0.996078431372549" d="M 327.5 174 L 331 175.5 L 326.5 176 L 327.5 174 Z " /><path fill="rgb(40,40,40)" stroke="rgb(40,40,40)" stroke-width="1" opacity="0.996078431372549" d="M 329.5 193 L 333 194 Q 332.1 201.1 335.5 205 L 344 203 L 342.5 206 L 316.5 212 L 313 211 L 313 207 L 322.5 207 Q 323.8 204.8 328.5 206 L 330 204.5 L 328 194.5 L 329.5 193 Z " /><path fill="rgb(40,40,40)" stroke="rgb(40,40,40)" stroke-width="1" opacity="0.996078431372549" d="M 79.5 197 Q 81.8 196.3 81 198.5 L 74 203 L 73.5 205 L 69.5 204 L 60.5 207 L 59 204.5 L 65.5 201 L 79.5 197 Z " /><path fill="rgb(40,40,40)" stroke="rgb(40,40,40)" stroke-width="1" opacity="0.996078431372549" d="M 304.5 202 Q 308.9 200.5 308 203.5 Q 310.3 204.8 309 209.5 L 308 210.5 L 308 218 L 341.5 208 Q 344.5 209.5 343 215.5 L 337.5 222 L 331.5 224 L 323.5 217 L 320.5 218 L 317.5 218 L 309.5 222 L 304 222 Q 306.2 216.8 305 206.5 L 303 203.5 L 304.5 202 Z M 335 212 Q 333 215 330 214 Q 329 220 334 221 L 339 218 L 341 214 Q 340 211 335 212 Z " /><path fill="rgb(40,40,40)" stroke="rgb(40,40,40)" stroke-width="1" opacity="0.996078431372549" d="M 71.5 206 Q 74.8 204.9 74 207.5 L 79.5 212 L 91.5 214 L 93 215.5 Q 91.5 218.5 85.5 217 L 70.5 212 L 64.5 219 L 61 220 L 61 217.5 L 71.5 206 Z " /><path fill="rgb(40,40,40)" stroke="rgb(40,40,40)" stroke-width="1" opacity="0.996078431372549" d="M 83 280 L 87 281.5 L 88 295.5 L 89 296.5 L 89 306.5 Q 86.3 308.3 88 314.5 L 84 325.5 L 85 328.5 L 82 331.5 Q 83.8 337.7 81 339.5 Q 83.2 340.7 82 345.5 L 85 348.5 L 83.5 350 L 74.5 350 L 63 352 Q 64.8 340 59.5 334 L 57 332.5 Q 56.5 329.5 63.5 331 L 72.5 328 L 76.5 328 L 82 324.5 L 85 309.5 L 85 292.5 L 83 280 Z M 61 308 L 61 309 L 62 309 L 61 308 Z M 76 331 L 67 333 L 65 335 Q 68 338 66 347 L 68 348 L 77 346 Q 79 343 78 335 L 80 332 L 76 331 Z " /><path fill="rgb(40,40,40)" stroke="rgb(40,40,40)" stroke-width="1" opacity="0.996078431372549" d="M 74.5 282 L 77 283.5 L 78 311.5 L 74.5 321 Q 71.8 321.6 73 315.5 L 75 303 L 72.5 303 L 63 308.5 Q 66.8 310.3 63.5 312 L 50.5 316 Q 47.8 314.8 49 309.5 L 50 308.5 L 50 300.5 L 48 296.5 L 51.5 295 L 54.5 299 L 59.5 299 L 74 292.5 L 72 284.5 L 74.5 282 Z M 73 297 L 59 302 L 54 301 L 53 310 Q 51 311 54 312 L 58 311 L 58 309 Q 55 310 56 308 L 60 305 L 72 301 L 74 299 Q 75 296 73 297 Z " /><path fill="rgb(40,40,40)" stroke="rgb(40,40,40)" stroke-width="1" opacity="0.996078431372549" d="M 326.5 284 Q 329.1 283.2 328 286.5 L 325 290.5 L 323 297.5 L 325 302 L 332 303.5 L 323 306 L 322 309.5 Q 324.3 310.8 323 315.5 L 322 318.5 L 323.5 320 L 332.5 316 L 335.5 316 L 346 310 L 346 312.5 L 342 318 Q 338.8 321 330.5 320 L 321.5 325 L 310.5 328 L 303.5 332 L 300.5 332 Q 297.3 330.3 301 328.5 Q 300.3 326.3 302.5 327 L 316.5 323 L 319 320.5 Q 320.8 314.3 318 312.5 L 319 309 L 306.5 313 Q 303.5 311.5 306.5 310 L 312 308 L 313 296.5 L 312 294 L 303 297 L 305.5 293 L 326.5 284 Z M 318 291 Q 315 292 316 296 L 316 298 L 317 300 L 316 303 Q 315 306 318 305 L 320 301 L 320 292 L 318 291 Z " /><path fill="rgb(40,40,40)" stroke="rgb(40,40,40)" stroke-width="1" opacity="0.996078431372549" d="M 209.5 287 L 212 288 L 211 325.5 L 207 333.5 L 205 344.5 L 205 346.5 L 202.5 352 L 202 339.5 L 202.5 338 L 198.5 338 Q 192.3 342 183 342 L 184.5 339 L 199.5 335 L 206 331.5 L 208 320.5 L 207 318 L 195.5 324 L 192 324 Q 191 320.2 193.5 319 L 196.5 319 L 207 315 L 209 304.5 L 209 302.5 L 208 288.5 L 209.5 287 Z " /><path fill="rgb(40,40,40)" stroke="rgb(40,40,40)" stroke-width="1" opacity="0.996078431372549" d="M 194.5 295 Q 198.7 293.7 197 298.5 L 196 299.5 L 195 312 L 204.5 308 L 205 311.5 L 191 317 L 184.5 331 L 181 332 L 187 319.5 L 183.5 319 L 177.5 323 L 169.5 325 L 168 322.5 Q 170.3 319.3 176.5 320 L 182.5 316 L 192 314 L 192 303.5 L 193 301 L 179.5 309 L 182 305.5 Q 183.3 301.3 178.5 303 L 172 305 L 173.5 302 L 184.5 298 L 189.5 299 L 194.5 295 Z " /><path fill="rgb(40,40,40)" stroke="rgb(40,40,40)" stroke-width="1" opacity="0.996078431372549" d="M 331.5 322 L 332 325.5 L 330 328.5 L 328 337.5 L 329 340 Q 331.7 338.9 331 341.5 L 339.5 347 L 343 347 Q 344.8 352.3 337.5 350 L 326 344 Q 326.3 350.6 322.5 354 Q 322 348.5 317.5 347 Q 315.5 344.2 311 345 Q 310.1 350.9 305.5 354 L 305 350.5 L 313 335.5 L 313 331 L 315.5 330 L 317 333.5 L 315 340.5 L 320.5 345 L 323 345 L 326 333.5 L 326 328.5 L 329.5 323 L 331.5 322 Z " /><path fill="rgb(40,40,40)" stroke="rgb(40,40,40)" stroke-width="1" opacity="0.996078431372549" d="M 77 411 L 83 414.5 L 84 418.5 L 84 438.5 L 82 448.5 L 79.5 453 Q 76.5 453.5 78 446.5 L 81 433.5 L 80 430.5 L 80 428.5 L 80 419.5 L 79 414 Q 75.7 415.1 77 411 Z " /><path fill="rgb(40,40,40)" stroke="rgb(40,40,40)" stroke-width="1" opacity="0.996078431372549" d="M 204.5 413 L 208 420.5 L 208 431.5 L 209 433.5 L 209 435.5 L 208 453.5 L 206 459.5 Q 208.3 460.7 207 465.5 L 206 466.5 L 206 475.5 L 207 477.5 L 203.5 480 L 190.5 482 Q 188 481 189 476.5 L 190 471.5 Q 186.1 469.4 187 464 L 199.5 462 L 204 458.5 L 206 449.5 L 205 448.5 L 205 440.5 L 206 438.5 L 205 437.5 L 205 423.5 L 203 414.5 L 204.5 413 Z M 202 464 L 195 467 L 193 468 L 193 478 L 202 476 L 202 470 L 203 469 Q 204 465 202 464 Z " /><path fill="rgb(40,40,40)" stroke="rgb(40,40,40)" stroke-width="1" opacity="0.996078431372549" d="M 315.5 416 L 318 416.5 L 313 426.5 Q 314.3 430.7 320.5 430 L 323 427.5 L 325 416 Q 327.7 414.9 327 417.5 L 328 419.5 L 325 427.5 L 334 433.5 L 333 436.5 L 341 438.5 L 331.5 442 L 327.5 442 L 325 444.5 L 327 448.5 Q 324 450.5 325 456.5 Q 325.8 458.8 329.5 458 L 332.5 457 L 334 460 L 318.5 464 L 315 466.5 Q 314.4 471.9 316 474 L 326.5 472 L 334.5 467 L 337 467 L 336 472 L 314.5 478 L 313 476.5 L 312 468.5 L 308 464.5 L 311.5 462 Q 318.8 462.6 322 460 L 322 447.5 L 324 443 L 315 444 L 316 455.5 L 315 459 L 312 459 L 312 450.5 L 311 448.5 L 312 446.5 L 308.5 445 L 305.5 447 L 294.5 449 L 293 446.5 L 294.5 445 L 309.5 442 L 315 437.5 Q 314.3 434.9 317 436 L 317 433 L 310.5 431 L 306 439 L 302 439 L 302 437.5 L 307 431.5 L 315.5 416 Z M 323 433 L 321 436 L 318 440 L 328 438 Q 331 439 330 436 Q 328 432 323 433 Z " /><path fill="rgb(40,40,40)" stroke="rgb(40,40,40)" stroke-width="1" opacity="0.996078431372549" d="M 64.5 418 L 67 418.5 L 67 427.5 L 66 434 L 51.5 435 L 49 436 L 49 443.5 L 50.5 444 L 53.5 445 L 55.5 444 L 57.5 444 L 69.5 444 L 75 442 L 72.5 446 L 65.5 448 Q 57.3 446.3 53.5 449 Q 52.3 446.7 47.5 448 L 46 446.5 L 45 439.5 L 40 434.5 L 43.5 432 L 53.5 432 Q 55 429.5 60.5 431 L 62 429.5 L 63 423 L 52.5 423 L 51.5 424 L 49.5 424 L 40.5 424 L 40 421.5 L 41.5 420 L 59.5 420 L 64.5 418 Z " /><path fill="rgb(40,40,40)" stroke="rgb(40,40,40)" stroke-width="1" opacity="0.996078431372549" d="M 178 424 L 182 425.5 L 183 429.5 L 181 434.5 L 185.5 435 L 187.5 433 L 197.5 430 L 199 433 L 182.5 439 L 178 439 Q 177 432.8 180 429.5 L 178 424 Z " /><path fill="rgb(40,40,40)" stroke="rgb(40,40,40)" stroke-width="1" opacity="0.996078431372549" d="M 199.5 435 L 203 436.5 L 201.5 439 L 197.5 439 L 187.5 444 L 169 446 Q 167.8 443 171.5 444 L 178.5 441 L 183.5 441 L 190.5 439 L 199.5 435 Z " /><path fill="rgb(40,40,40)" stroke="rgb(40,40,40)" stroke-width="1" opacity="0.996078431372549" d="M 186.5 445 L 190 446.5 L 190 451.5 L 186.5 459 Q 182.8 460.3 184 456.5 L 186 449.5 L 185 446.5 L 186.5 445 Z " /><path fill="rgb(40,40,40)" stroke="rgb(40,40,40)" stroke-width="1" opacity="0.996078431372549" d="M 77.5 456 L 81 457.5 L 80 471.5 L 81 477 L 70.5 479 L 54 479 L 55.5 475 Q 58.5 475.9 57 471.5 L 55 464 L 58 465.5 L 59 473.5 L 60.5 475 L 65.5 476 L 75.5 474 L 77 472.5 L 76 470.5 L 77 469.5 L 77 461 L 71.5 462 L 49.5 463 Q 46 461 50.5 459 L 57.5 458 L 59.5 459 L 61.5 458 L 63.5 458 L 70.5 458 L 77.5 456 Z " /><path fill="rgb(40,40,40)" stroke="rgb(40,40,40)" stroke-width="1" opacity="0.996078431372549" d="M 333.5 535 L 336 536.5 L 338 552.5 L 340 555.5 L 340 564.5 L 339 565.5 L 339 580.5 L 337 586 Q 332.9 587.7 334 583.5 L 335 582.5 L 335 570.5 L 333.5 571 L 324.5 575 L 321.5 575 L 314.5 579 Q 303.2 579.7 296.5 585 L 292 585 L 292 580 L 293.5 580 L 311.5 576 L 315 572.5 L 315 563.5 L 316 562.5 L 314 559.5 L 314 546.5 L 312 539.5 L 316 538 L 317 540.5 L 317 553 Q 322.5 554.3 324 550.5 L 322 547.5 L 321 537.5 L 324.5 536 L 327 539.5 L 328 565 Q 325.9 566.6 320.5 566 L 319 567.5 L 318 573 L 336 567 L 337 561.5 L 332 536.5 L 333.5 535 Z M 322 557 L 319 558 Q 318 562 321 563 L 323 562 Q 325 556 322 557 Z " /><path fill="rgb(40,40,40)" stroke="rgb(40,40,40)" stroke-width="1" opacity="0.996078431372549" d="M 203.5 537 L 207 538.5 L 210 550.5 L 211 564.5 L 210 565.5 L 210 576.5 L 209 577.5 L 209 579.5 L 207.5 582 Q 203.8 580.8 205 584.5 Q 202.2 586.3 204 592.5 Q 210.8 599.7 220 603 Q 222.1 608.2 217.5 607 L 203.5 597 Q 200.8 598.3 202 603.5 L 199 609 L 195.5 607 L 191.5 607 L 183 610 L 182 607.5 L 182 605.5 Q 182.8 601.8 180.5 601 L 176 598.5 L 178.5 595 L 189.5 595 L 191 593.5 L 192 589.5 L 189.5 588 L 181.5 592 L 178 592 L 177 588.5 Q 177.5 585.5 181.5 586 L 184.5 587 L 191 583.5 L 192.5 581 Q 196.8 585.2 195 595.5 Q 192.4 600.8 186 601 L 187.5 605 L 195.5 604 L 199 601.5 L 199 590.5 Q 200.6 582.6 206 578.5 L 207 566.5 L 206 564.5 L 207 563.5 L 207 555.5 L 206 554.5 L 205 543.5 L 202 538.5 L 203.5 537 Z " /><path fill="rgb(40,40,40)" stroke="rgb(40,40,40)" stroke-width="1" opacity="0.996078431372549" d="M 73 538 L 77 539.5 L 78 556.5 L 79 558.5 L 79 560.5 L 78 584 L 84 583 L 83 585.5 L 83 604.5 L 81.5 606 L 79 606 L 79 599.5 L 80 595.5 L 79 590.5 L 80 587 L 68.5 590 L 67 586.5 L 69.5 585 L 72.5 586 L 75 582.5 L 74 578.5 L 75 577.5 L 75 568 L 42.5 581 L 40 577 L 51.5 574 L 75 564 L 76 557.5 L 74 550.5 L 73 538 Z " /><path fill="rgb(40,40,40)" stroke="rgb(40,40,40)" stroke-width="1" opacity="0.996078431372549" d="M 308.5 539 L 310 539.5 L 310 549.5 L 313 566 L 309.5 566 L 298 572 L 297 567.5 Q 300.4 564.9 299 557.5 L 297 555.5 L 297 548 Q 302.3 546.2 300 553.5 L 301 556 L 307 554 L 308 550.5 L 307 549.5 L 307 540.5 L 308.5 539 Z M 307 557 L 305 558 Q 302 560 303 565 Q 308 566 309 562 L 307 557 Z " /><path fill="rgb(40,40,40)" stroke="rgb(40,40,40)" stroke-width="1" opacity="0.996078431372549" d="M 191.5 542 L 193 545.5 L 191 552.5 L 187.5 556 L 180.5 558 L 178 560.5 L 179.5 563 L 192.5 557 L 194.5 557 L 197 558.5 Q 197.8 561.1 194.5 560 L 183.5 565 L 174 567 L 175 557.5 L 174 555.5 L 175.5 554 L 183.5 553 L 187 550.5 Q 188.1 547.2 185.5 548 L 174 552 Q 172.9 549.3 175.5 550 L 191.5 542 Z " /><path fill="rgb(40,40,40)" stroke="rgb(40,40,40)" stroke-width="1" opacity="0.996078431372549" d="M 59.5 545 Q 65.6 543.2 63 550.5 L 59.5 558 L 51 562.5 L 54.5 564 Q 59.8 559 69 559 L 67.5 562 L 49.5 570 Q 46.3 569.3 47 564.5 L 48 559.5 L 47 555 L 53.5 557 L 58 553.5 L 59 550 L 49.5 553 L 47 551.5 L 59.5 545 Z " /><path fill="rgb(40,40,40)" stroke="rgb(40,40,40)" stroke-width="1" opacity="0.996078431372549" d="M 198.5 563 Q 203 562 204 564.5 Q 204.9 567.5 200.5 566 L 186 571 L 189 578.5 L 185.5 583 L 183 582.5 L 184 581.5 L 184 572 L 171.5 577 L 167.5 577 Q 164.5 575.5 167.5 574 L 198.5 563 Z " /><path fill="rgb(40,40,40)" stroke="rgb(40,40,40)" stroke-width="1" opacity="0.996078431372549" d="M 322.5 581 Q 326.3 579.8 325 583.5 L 327.5 590 L 331 590.5 L 327 595.5 L 331.5 600 L 346 608.5 Q 346.8 610.8 344.5 610 L 324.5 600 L 315.5 611 Q 310.7 612.7 312 608.5 L 322 597.5 L 322 595 L 313.5 598 L 312 595 L 318.5 592 L 322 592 L 321 586.5 L 321 584.5 L 322.5 581 Z " /><path fill="rgb(40,40,40)" stroke="rgb(40,40,40)" stroke-width="1" opacity="0.996078431372549" d="M 61.5 582 Q 65.3 581.3 66 583.5 Q 63.7 584.8 65 589.5 L 59.5 595 L 54 597 L 56 605 L 62.5 605 L 71.5 601 L 75 601 Q 76.5 604.8 73.5 604 Q 63.5 608.8 51 610 L 52 603.5 L 46 599.5 L 48.5 596 L 61 588.5 Q 61.9 585.5 57.5 587 L 51.5 589 L 49.5 586 L 61.5 582 Z " /><path fill="rgb(252,252,252)" stroke="rgb(252,252,252)" stroke-width="1" opacity="0.996078431372549" d="M 0 0 L 383 0 L 383 629 L 0 629 L 0 0 Z M 330 25 L 327 31 L 329 37 L 328 39 L 330 44 L 325 45 L 323 48 Q 321 49 324 50 L 331 48 L 331 55 L 330 56 L 330 73 L 329 75 L 321 77 L 316 76 L 314 77 Q 311 76 312 79 L 315 80 L 317 83 Q 316 91 320 95 L 334 91 L 333 89 L 333 76 L 331 74 L 331 69 L 334 65 L 334 52 L 335 51 L 335 46 L 332 37 L 332 30 L 333 29 L 330 25 Z M 207 30 L 208 45 L 209 46 L 207 56 Q 206 58 205 56 L 191 64 L 189 64 L 190 58 Q 196 58 201 54 L 204 54 L 205 50 L 202 50 L 193 55 L 190 55 L 167 63 L 169 66 L 186 60 L 185 67 L 181 73 Q 177 74 181 76 L 183 75 Q 185 69 190 65 L 192 68 L 203 61 L 208 64 Q 206 65 207 70 L 202 73 L 193 76 L 182 77 L 181 78 Q 178 77 179 80 L 190 80 L 205 76 L 201 90 Q 199 95 203 94 L 205 91 L 209 73 L 211 69 L 211 53 L 212 52 L 212 40 L 210 32 Q 211 28 207 30 Z M 77 32 L 75 34 L 75 40 L 77 46 L 76 51 Q 75 53 71 52 L 67 55 L 64 55 L 50 63 L 42 64 Q 38 65 39 69 L 48 68 L 55 63 L 57 63 L 54 73 Q 53 77 56 79 L 56 85 L 49 96 L 52 97 L 58 90 Q 64 92 68 97 L 70 95 Q 69 89 72 88 L 87 95 L 92 93 L 84 91 L 75 85 L 73 85 L 73 76 L 72 75 L 68 80 L 69 85 L 67 90 L 64 88 L 60 85 Q 61 78 58 75 L 58 70 L 61 62 L 73 56 L 74 53 L 77 55 L 76 69 L 74 71 Q 73 74 77 73 L 79 71 L 79 60 L 80 59 L 80 45 Q 78 43 79 38 L 77 32 Z M 312 34 L 305 50 L 298 56 L 295 60 L 300 59 L 308 50 L 311 50 L 319 54 L 323 59 Q 326 60 324 56 L 311 46 L 314 36 L 312 34 Z M 188 38 L 178 44 L 179 46 L 178 50 Q 176 55 180 57 L 191 54 L 196 49 L 196 41 Q 195 37 188 38 Z M 63 40 L 47 48 Q 44 47 45 51 L 61 45 Q 58 47 59 54 L 62 55 L 65 42 L 63 40 Z M 85 148 L 82 151 L 85 163 L 85 168 L 81 171 L 80 170 L 80 168 L 78 158 L 75 155 L 71 160 L 73 160 L 75 163 L 77 169 L 76 187 L 75 188 Q 73 192 77 191 L 79 188 L 81 176 L 85 173 L 87 175 L 86 177 L 86 185 L 87 186 L 82 192 Q 81 198 84 197 L 87 189 L 90 186 L 91 181 L 90 169 L 88 167 L 87 153 L 85 148 Z M 317 158 L 315 159 L 313 159 L 299 164 Q 296 166 299 167 L 310 164 L 311 165 L 306 174 L 300 179 Q 297 178 298 181 L 302 182 L 311 172 L 316 179 L 316 188 L 317 189 L 315 191 L 302 193 L 300 193 L 294 195 L 296 199 L 317 193 L 334 192 L 339 189 L 339 191 L 342 192 Q 347 193 349 191 L 348 189 Q 341 191 340 188 L 331 188 L 319 190 Q 321 187 320 180 L 323 176 L 323 174 L 328 163 L 328 159 L 320 163 L 319 159 L 317 158 Z M 65 161 L 63 163 L 55 165 L 43 187 L 48 185 L 50 183 L 50 180 L 53 177 L 56 170 L 61 166 Q 62 164 63 167 L 62 172 L 55 183 Q 54 186 57 185 L 61 177 L 64 177 L 71 183 L 72 180 L 64 173 Q 67 169 68 163 L 65 161 Z M 201 161 L 199 163 L 202 173 L 203 187 L 191 190 L 186 193 L 174 196 L 171 198 Q 167 197 169 201 L 173 201 L 194 193 L 200 192 L 204 189 L 203 202 L 199 205 L 186 209 L 184 212 L 189 212 L 192 210 L 202 208 L 201 212 L 201 223 L 203 223 L 204 221 L 205 210 L 205 208 L 206 206 L 205 204 L 208 195 L 205 172 Q 202 170 203 164 L 201 161 Z M 189 164 L 189 167 L 188 170 L 190 173 L 189 175 L 183 178 L 178 177 L 179 172 L 176 170 L 175 174 L 175 176 L 177 181 Q 178 185 176 187 Q 175 190 178 191 L 189 187 L 192 183 L 191 179 Q 190 173 192 172 Q 193 167 191 166 Q 192 163 189 164 Z M 328 174 L 327 176 L 331 176 L 328 174 Z M 330 193 L 328 195 L 330 205 L 329 206 Q 324 205 323 207 L 313 207 L 313 211 L 317 212 L 343 206 L 344 203 L 336 205 Q 332 201 333 194 L 330 193 Z M 80 197 L 66 201 L 59 205 L 61 207 L 70 204 L 74 205 L 74 203 L 81 199 Q 82 196 80 197 Z M 305 202 L 303 204 L 305 207 Q 306 217 304 222 L 310 222 L 318 218 L 321 218 L 324 217 L 332 224 L 338 222 L 343 216 Q 344 209 342 208 L 308 218 L 308 211 L 309 210 Q 310 205 308 204 Q 309 201 305 202 Z M 72 206 L 61 218 L 61 220 L 65 219 L 71 212 L 86 217 Q 91 218 93 216 L 92 214 L 80 212 L 74 208 Q 75 205 72 206 Z M 83 280 L 85 293 L 85 310 L 82 325 L 77 328 L 73 328 L 64 331 Q 56 329 57 333 L 60 334 Q 65 340 63 352 L 75 350 L 84 350 L 85 349 L 82 346 Q 83 341 81 340 Q 84 338 82 332 L 85 329 L 84 326 L 88 315 Q 86 308 89 307 L 89 297 L 88 296 L 87 282 L 83 280 Z M 75 282 L 72 285 L 74 293 L 60 299 L 55 299 L 52 295 L 48 297 L 50 301 L 50 309 L 49 310 Q 48 315 51 316 L 64 312 Q 67 310 63 309 L 73 303 L 75 303 L 73 316 Q 72 322 75 321 L 78 312 L 77 284 L 75 282 Z M 327 284 L 306 293 L 303 297 L 312 294 L 313 297 L 312 308 L 307 310 Q 304 312 307 313 L 319 309 L 318 313 Q 321 314 319 321 L 317 323 L 303 327 Q 300 326 301 329 Q 297 330 301 332 L 304 332 L 311 328 L 322 325 L 331 320 Q 339 321 342 318 L 346 313 L 346 310 L 336 316 L 333 316 L 324 320 L 322 319 L 323 316 Q 324 311 322 310 L 323 306 L 332 304 L 325 302 L 323 298 L 325 291 L 328 287 Q 329 283 327 284 Z M 210 287 L 208 289 L 209 303 L 209 305 L 207 315 L 197 319 L 194 319 Q 191 320 192 324 L 196 324 L 207 318 L 208 321 L 206 332 L 200 335 L 185 339 L 183 342 Q 192 342 199 338 L 203 338 L 202 340 L 203 352 L 205 347 L 205 345 L 207 334 L 211 326 L 212 288 L 210 287 Z M 195 295 L 190 299 L 185 298 L 174 302 L 172 305 L 179 303 Q 183 301 182 306 L 181 308 L 193 301 L 192 304 L 192 314 L 183 316 L 177 320 Q 170 319 168 323 L 170 325 L 178 323 L 184 319 L 187 320 L 181 332 L 185 331 L 191 317 L 205 312 L 205 308 L 195 312 L 196 300 L 197 299 Q 199 294 195 295 Z M 180 308 L 180 309 L 180 308 Z M 332 322 L 330 323 L 326 329 L 326 334 L 323 345 L 321 345 L 315 341 L 317 334 L 316 330 L 313 331 L 313 336 L 305 351 L 306 354 Q 310 351 311 345 Q 315 344 318 347 Q 322 349 323 354 Q 326 351 326 344 L 338 350 Q 345 352 343 347 L 340 347 L 331 342 Q 332 339 329 340 L 328 338 L 330 329 L 332 326 L 332 322 Z M 77 411 Q 76 415 79 414 L 80 420 L 80 429 L 80 431 L 81 434 L 78 447 Q 76 453 80 453 L 82 449 L 84 439 L 84 419 L 83 415 L 77 411 Z M 205 413 L 203 415 L 205 424 L 205 438 L 206 439 L 205 441 L 205 449 L 206 450 L 204 459 L 200 462 L 187 464 Q 186 469 190 472 L 189 477 Q 188 481 191 482 L 204 480 L 207 478 L 206 476 L 206 467 L 207 466 Q 208 461 206 460 L 208 454 L 209 436 L 209 434 L 208 432 L 208 421 L 205 413 Z M 316 416 L 307 432 L 302 438 L 302 439 L 306 439 L 311 431 L 317 433 L 317 436 Q 314 435 315 438 L 310 442 L 295 445 L 293 447 L 295 449 L 306 447 L 309 445 L 312 447 L 311 449 L 312 451 L 312 459 L 315 459 L 316 456 L 315 444 L 324 443 L 322 448 L 322 460 Q 319 463 312 462 L 308 465 L 312 469 L 313 477 L 315 478 L 336 472 L 337 467 L 335 467 L 327 472 L 316 474 Q 314 472 315 467 L 319 464 L 334 460 L 333 457 L 330 458 Q 326 459 325 457 Q 324 451 327 449 L 325 445 L 328 442 L 332 442 L 341 439 L 333 437 L 334 434 L 325 428 L 328 420 L 327 418 Q 328 415 325 416 L 323 428 L 321 430 Q 314 431 313 427 L 318 417 L 316 416 Z M 65 418 L 60 420 L 42 420 L 40 422 L 41 424 L 50 424 L 52 424 L 53 423 L 63 423 L 62 430 L 61 431 Q 55 430 54 432 L 44 432 L 40 435 L 45 440 L 46 447 L 48 448 Q 52 447 54 449 Q 57 446 66 448 L 73 446 L 75 442 L 70 444 L 58 444 L 56 444 L 54 445 L 51 444 L 49 444 L 49 436 L 52 435 L 66 434 L 67 428 L 67 419 L 65 418 Z M 178 424 L 180 430 Q 177 433 178 439 L 183 439 L 199 433 L 198 430 L 188 433 L 186 435 L 181 435 L 183 430 L 182 426 L 178 424 Z M 200 435 L 191 439 L 184 441 L 179 441 L 172 444 Q 168 443 169 446 L 188 444 L 198 439 L 202 439 L 203 437 L 200 435 Z M 187 445 L 185 447 L 186 450 L 184 457 Q 183 460 187 459 L 190 452 L 190 447 L 187 445 Z M 78 456 L 71 458 L 64 458 L 62 458 L 60 459 L 58 458 L 51 459 Q 46 461 50 463 L 72 462 L 77 461 L 77 470 L 76 471 L 77 473 L 76 474 L 66 476 L 61 475 L 59 474 L 58 466 L 55 464 L 57 472 Q 58 476 56 475 L 54 479 L 71 479 L 81 477 L 80 472 L 81 458 L 78 456 Z M 51 476 L 51 477 L 51 476 Z M 47 477 Q 46 480 49 479 Q 50 476 47 477 Z M 334 535 L 332 537 L 337 562 L 336 567 L 318 573 L 319 568 L 321 566 Q 326 567 328 565 L 327 540 L 325 536 L 321 538 L 322 548 L 324 551 Q 323 554 317 553 L 317 541 L 316 538 L 312 540 L 314 547 L 314 560 L 316 563 L 315 564 L 315 573 L 312 576 L 294 580 L 292 580 L 292 585 L 297 585 Q 303 580 315 579 L 322 575 L 325 575 L 334 571 L 335 571 L 335 583 L 334 584 Q 333 588 337 586 L 339 581 L 339 566 L 340 565 L 340 556 L 338 553 L 336 537 L 334 535 Z M 204 537 L 202 539 L 205 544 L 206 555 L 207 556 L 207 564 L 206 565 L 207 567 L 206 579 Q 201 583 199 591 L 199 602 L 196 604 L 188 605 L 186 601 Q 192 601 195 596 Q 197 585 193 581 L 191 584 L 185 587 L 182 586 Q 178 586 177 589 L 178 592 L 182 592 L 190 588 L 192 590 L 191 594 L 190 595 L 179 595 L 176 599 L 181 601 Q 183 602 182 606 L 182 608 L 183 610 L 192 607 L 196 607 L 199 609 L 202 604 Q 201 598 204 597 L 218 607 Q 222 608 220 603 Q 211 600 204 593 Q 202 586 205 585 Q 204 581 208 582 L 209 580 L 209 578 L 210 577 L 210 566 L 211 565 L 210 551 L 207 539 L 204 537 Z M 73 538 L 74 551 L 76 558 L 75 564 L 52 574 L 40 577 L 43 581 L 75 568 L 75 578 L 74 579 L 75 583 L 73 586 L 70 585 L 67 587 L 69 590 L 80 587 L 79 591 L 80 596 L 79 600 L 79 606 L 82 606 L 83 605 L 83 586 L 84 583 L 78 584 L 79 561 L 79 559 L 78 557 L 77 540 L 73 538 Z M 309 539 L 307 541 L 307 550 L 308 551 L 307 554 L 301 556 L 300 554 Q 302 546 297 548 L 297 556 L 299 558 Q 300 565 297 568 L 298 572 L 310 566 L 313 566 L 310 550 L 310 540 L 309 539 Z M 192 542 L 176 550 Q 173 549 174 552 L 186 548 Q 188 547 187 551 L 184 553 L 176 554 L 174 556 L 175 558 L 174 567 L 184 565 L 195 560 Q 198 561 197 559 L 195 557 L 193 557 L 180 563 L 178 561 L 181 558 L 188 556 L 191 553 L 193 546 L 192 542 Z M 60 545 L 47 552 L 50 553 L 59 550 L 58 554 L 54 557 L 47 555 L 48 560 L 47 565 Q 46 569 50 570 L 68 562 L 69 559 Q 60 559 55 564 L 51 563 L 60 558 L 63 551 Q 66 543 60 545 Z M 199 563 L 168 574 Q 165 576 168 577 L 172 577 L 184 572 L 184 582 L 183 583 L 186 583 L 189 579 L 186 571 L 201 566 Q 205 567 204 565 Q 203 562 199 563 Z M 323 581 L 321 585 L 321 587 L 322 592 L 319 592 L 312 595 L 314 598 L 322 595 L 322 598 L 312 609 Q 311 613 316 611 L 325 600 L 345 610 Q 347 611 346 609 L 332 600 L 327 596 L 331 591 L 328 590 L 325 584 Q 326 580 323 581 Z M 62 582 L 50 586 L 52 589 L 58 587 Q 62 585 61 589 L 49 596 L 46 600 L 52 604 L 51 610 Q 64 609 74 604 Q 77 605 75 601 L 72 601 L 63 605 L 56 605 L 54 597 L 60 595 L 65 590 Q 64 585 66 584 Q 65 581 62 582 Z " /><path fill="rgb(252,252,252)" stroke="rgb(252,252,252)" stroke-width="1" opacity="0.996078431372549" d="M 186.5 42 Q 191 41 192 43.5 Q 193.3 50.8 188.5 52 L 181 53 L 184.5 43 L 186.5 42 Z " /><path fill="rgb(252,252,252)" stroke="rgb(252,252,252)" stroke-width="1" opacity="0.996078431372549" d="M 324.5 79 L 329 79 L 329 87.5 L 321.5 91 L 320 89.5 L 320 80 L 324.5 79 Z " /><path fill="rgb(252,252,252)" stroke="rgb(252,252,252)" stroke-width="1" opacity="0.996078431372549" d="M 318.5 164 L 322 166 L 321 172.5 L 319.5 174 L 312 170.5 L 314.5 167 L 318.5 164 Z " /><path fill="rgb(252,252,252)" stroke="rgb(252,252,252)" stroke-width="1" opacity="0.996078431372549" d="M 186.5 179 L 188 179 L 188 183 L 180 186 Q 179.3 182.2 182.5 181 L 186.5 179 Z " /><path fill="rgb(252,252,252)" stroke="rgb(252,252,252)" stroke-width="1" opacity="0.996078431372549" d="M 334.5 212 Q 339.8 210.8 341 213.5 L 338.5 218 L 333.5 221 Q 329 219.6 330 214 Q 333.4 214.8 334.5 212 Z " /><path fill="rgb(252,252,252)" stroke="rgb(252,252,252)" stroke-width="1" opacity="0.996078431372549" d="M 317.5 291 L 320 291.5 L 320 300.5 L 317.5 305 Q 314.9 305.8 316 302.5 L 317 299.5 L 316 297.5 L 316 295.5 Q 315.3 291.8 317.5 291 Z " /><path fill="rgb(252,252,252)" stroke="rgb(252,252,252)" stroke-width="1" opacity="0.996078431372549" d="M 72.5 297 Q 74.8 296.3 74 298.5 L 71.5 301 L 59.5 305 L 56 307.5 Q 55.3 310.1 58 309 L 58 311 L 53.5 312 Q 50.8 310.8 53 309.5 L 54 301 L 58.5 302 L 72.5 297 Z " /><path fill="rgb(252,252,252)" stroke="rgb(252,252,252)" stroke-width="1" opacity="0.996078431372549" d="M 60.5 308 L 62 308.5 L 60.5 309 L 60.5 308 Z " /><path fill="rgb(252,252,252)" stroke="rgb(252,252,252)" stroke-width="1" opacity="0.996078431372549" d="M 75.5 331 L 80 331.5 L 78 334.5 Q 79.1 342.7 77 346 L 67.5 348 L 66 346.5 Q 67.7 338.3 65 334.5 L 66.5 333 L 75.5 331 Z " /><path fill="rgb(252,252,252)" stroke="rgb(252,252,252)" stroke-width="1" opacity="0.996078431372549" d="M 322.5 433 Q 328.3 432.2 330 435.5 Q 331.3 439.3 327.5 438 L 317.5 440 L 321 435.5 L 322.5 433 Z " /><path fill="rgb(252,252,252)" stroke="rgb(252,252,252)" stroke-width="1" opacity="0.996078431372549" d="M 201.5 464 Q 203.8 464.8 203 468.5 L 202 469.5 L 202 476 L 193 478 L 193 467.5 L 194.5 467 L 201.5 464 Z " /><path fill="rgb(252,252,252)" stroke="rgb(252,252,252)" stroke-width="1" opacity="0.996078431372549" d="M 306.5 557 L 309 561.5 Q 307.7 565.8 303 565 Q 301.5 559.6 304.5 558 L 306.5 557 Z " /><path fill="rgb(252,252,252)" stroke="rgb(252,252,252)" stroke-width="1" opacity="0.996078431372549" d="M 321.5 557 Q 324.9 556.1 323 561.5 L 320.5 563 Q 318 561.8 319 558 L 321.5 557 Z " /></svg>