<svg width="383" height="629" version="1.1" xmlns="http://www.w3.org/2000/svg" desc="Created with imagetracer.js version 1.2.1" ><path fill="rgb(49,49,49)" stroke="rgb(49,49,49)" stroke-width="0.3" opacity="0.996078431372549" d="M 329.5 25 L 333 29.5 L 332 34.5 L 335 50.5 L 331 73.5 L 333 75.5 L 334 91 L 319.5 95 L 315.5 81 L 312 78.5 L 313.5 77 L 315.5 76 L 320.5 77 L 329 75 L 331 48 L 323.5 50 L 323 47.5 L 324.5 45 L 330 44 L 328 38.5 L 328 36.5 L 327 28.5 L 329.5 25 Z M 325 79 L 320 80 L 322 91 L 329 88 L 329 79 L 325 79 Z " /><path fill="rgb(49,49,49)" stroke="rgb(49,49,49)" stroke-width="0.3" opacity="0.996078431372549" d="M 207 30 L 211 31.5 L 212 51.5 L 211 69.5 L 202.5 94 L 201 89.5 L 205 77.5 L 201.5 76 L 182.5 81 L 179 80 L 180.5 77 L 191.5 76 L 206 71 L 208 63.5 L 202.5 61 L 191.5 68 L 189.5 65 L 181.5 76 L 179 74.5 L 185 66.5 L 186 60 L 168.5 66 L 167 63.5 L 205 50 L 203.5 54 L 190 58 L 189 63.5 L 190.5 64 L 204.5 56 L 207 55.5 L 208 36.5 L 207 30 Z " /><path fill="rgb(49,49,49)" stroke="rgb(49,49,49)" stroke-width="0.3" opacity="0.996078431372549" d="M 76.5 32 L 79 36.5 L 80 58.5 L 79 70.5 L 76.5 73 L 74 70.5 L 76 68.5 L 76 53 L 74 54.5 L 61 61.5 L 58 74.5 L 63.5 88 L 66.5 90 L 68 79.5 L 71.5 75 L 73 75.5 L 73 83.5 L 83.5 91 L 92 92.5 L 86.5 95 L 75 91 L 72.5 89 L 70 89.5 L 67.5 97 L 57.5 90 L 51.5 97 L 49 95.5 L 55 86.5 L 56 78.5 L 54 71.5 L 57 63 L 50.5 67 L 39 69 L 41.5 64 L 63 55.5 L 59 53.5 L 61 45 L 45 51 L 46.5 48 L 63.5 40 L 65 42.5 L 63 55 L 76 50.5 L 75 33.5 L 76.5 32 Z " /><path fill="rgb(49,49,49)" stroke="rgb(49,49,49)" stroke-width="0.3" opacity="0.996078431372549" d="M 311.5 34 L 314 35.5 L 311 46 L 324 55.5 L 322.5 59 L 320 55 L 307.5 50 L 298.5 60 L 295 58.5 L 305 49.5 L 311.5 34 Z " /><path fill="rgb(49,49,49)" stroke="rgb(49,49,49)" stroke-width="0.3" opacity="0.996078431372549" d="M 187.5 38 Q 194.5 36.5 196 40.5 L 196 48.5 L 190.5 54 L 179.5 57 L 178 49.5 L 179 45.5 L 178 43.5 L 187.5 38 Z M 187 42 L 183 44 L 181 53 L 189 52 Q 193 51 192 44 L 187 42 Z " /><path fill="rgb(49,49,49)" stroke="rgb(49,49,49)" stroke-width="0.3" opacity="0.996078431372549" d="M 83.5 149 L 86 151.5 L 91 180.5 L 83.5 197 L 82 191.5 L 86 186.5 L 87 174.5 L 84.5 173 L 81 175.5 L 76.5 191 L 75 187.5 L 76 184.5 L 77 172.5 L 76 164.5 L 72.5 160 L 71 159.5 L 74.5 155 L 78 157.5 L 80.5 171 L 85 167.5 L 82 150.5 L 83.5 149 Z " /><path fill="rgb(49,49,49)" stroke="rgb(49,49,49)" stroke-width="0.3" opacity="0.996078431372549" d="M 312.5 159 L 319 159 L 319 162.5 L 320.5 162 L 328 159 L 326 169.5 L 323 172.5 L 324 174.5 L 320 179.5 L 319 190 L 339.5 188 L 349 190.5 L 341.5 192 L 339 191 L 338.5 189 L 333.5 192 L 316.5 193 L 296.5 199 L 294 198 L 295.5 194 L 299.5 193 L 301.5 193 L 314.5 191 L 317 188.5 L 316 178.5 L 310.5 172 L 301.5 182 L 298 180.5 L 299.5 179 L 306 173.5 L 311 164.5 L 309.5 164 L 298.5 167 L 298.5 164 L 312.5 159 Z M 318 165 L 315 167 L 312 171 L 320 174 L 322 167 L 318 165 Z " /><path fill="rgb(49,49,49)" stroke="rgb(49,49,49)" stroke-width="0.3" opacity="0.996078431372549" d="M 64.5 161 L 68 162.5 L 64 172.5 L 72 179.5 L 70.5 183 L 61 177 L 56.5 185 L 55 182.5 L 63 166 L 56 169.5 L 47.5 185 L 43 187 L 54.5 165 L 64.5 161 Z " /><path fill="rgb(49,49,49)" stroke="rgb(49,49,49)" stroke-width="0.3" opacity="0.996078431372549" d="M 200.5 161 L 205 171.5 L 208 194.5 L 205 202.5 L 206 209.5 L 202.5 223 L 201 210.5 L 202 208 L 184 212 L 186.5 208 L 203 201.5 L 204 189 L 169 201 L 170.5 198 L 203 187 L 200.5 161 Z " /><path fill="rgb(49,49,49)" stroke="rgb(49,49,49)" stroke-width="0.3" opacity="0.996078431372549" d="M 189 164 L 191 165.5 L 192 171.5 L 191 177.5 L 192 183.5 L 177.5 191 L 176 186.5 L 177 180.5 L 175 172.5 L 176 170 L 179 171.5 L 178 174.5 L 179.5 177 L 182.5 178 L 189 175 L 190 172.5 L 188 169.5 L 188 167.5 L 189 164 Z M 187 179 L 183 181 L 180 186 L 188 183 L 187 179 Z " /><path fill="rgb(49,49,49)" stroke="rgb(49,49,49)" stroke-width="0.3" opacity="0.996078431372549" d="M 327.5 174 L 330 176 L 326 175.5 L 327.5 174 Z " /><path fill="rgb(49,49,49)" stroke="rgb(49,49,49)" stroke-width="0.3" opacity="0.996078431372549" d="M 329.5 193 L 333 194 L 335.5 205 L 344 203 L 342.5 206 L 315.5 212 L 313 211 L 314.5 207 L 330 204.5 L 328 194.5 L 329.5 193 Z " /><path fill="rgb(49,49,49)" stroke="rgb(49,49,49)" stroke-width="0.3" opacity="0.996078431372549" d="M 79.5 197 L 81 198.5 L 73 205.5 L 77.5 211 L 93 215.5 L 85.5 217 L 70.5 212 L 63.5 220 L 61 217.5 L 72 205.5 L 66.5 205 L 60.5 207 L 59 204.5 L 79.5 197 Z " /><path fill="rgb(49,49,49)" stroke="rgb(49,49,49)" stroke-width="0.3" opacity="0.996078431372549" d="M 304.5 202 L 308 203.5 L 309 210.5 L 308 218 L 341.5 208 L 343 216.5 L 331.5 224 L 329 223 L 324.5 217 L 304 222 L 305 206.5 L 303 203.5 L 304.5 202 Z M 335 212 L 330 216 L 334 221 L 339 218 L 341 214 L 335 212 Z " /><path fill="rgb(49,49,49)" stroke="rgb(49,49,49)" stroke-width="0.3" opacity="0.996078431372549" d="M 83 280 L 87 281.5 L 89 306.5 L 84 325.5 L 85 328.5 L 82 331.5 L 82 345.5 Q 87.3 347.8 83.5 350 L 63 352 L 62 337.5 L 59.5 334 L 57 332.5 L 62.5 331 L 82 324.5 L 85 292.5 L 83 280 Z M 61 308 L 61 309 L 62 309 L 61 308 Z M 76 331 L 65 335 L 68 348 L 77 346 L 79 334 Q 80 329 76 331 Z " /><path fill="rgb(49,49,49)" stroke="rgb(49,49,49)" stroke-width="0.3" opacity="0.996078431372549" d="M 74.5 282 L 77 283.5 L 78 311.5 L 74.5 321 L 73 315.5 L 74 313.5 L 73 311.5 L 75 303 L 63 308.5 L 63.5 312 L 51.5 316 L 49 315 L 50 300.5 L 48 297.5 L 49 295 L 53 296.5 L 54.5 299 L 74 292.5 L 72 284.5 L 74.5 282 Z M 73 297 L 60 302 L 54 301 L 53 310 L 54 312 L 58 311 L 56 308 L 74 299 L 73 297 Z " /><path fill="rgb(49,49,49)" stroke="rgb(49,49,49)" stroke-width="0.3" opacity="0.996078431372549" d="M 325.5 284 L 328 286.5 L 323 297.5 L 325 302 L 332 303.5 L 323 306 L 322 309.5 L 323.5 320 L 346 310 L 340.5 319 L 330.5 320 L 300.5 332 L 300 329.5 L 301.5 327 L 319 320.5 L 318 316.5 L 318 314.5 L 319 309 L 306.5 313 L 306.5 310 L 312 308 L 313 297.5 L 312 294 L 303 297 L 306.5 292 L 325.5 284 Z M 318 291 L 316 293 L 317 297 L 316 304 L 318 305 L 320 300 L 320 292 L 318 291 Z " /><path fill="rgb(49,49,49)" stroke="rgb(49,49,49)" stroke-width="0.3" opacity="0.996078431372549" d="M 209.5 287 L 212 289.5 L 212 308.5 L 211 326.5 L 205 343.5 L 206 345.5 L 202.5 352 L 201 349.5 L 203 338.5 L 199.5 338 L 183 342 L 184.5 339 L 205 333 L 208 320.5 L 206.5 318 L 193.5 324 L 192 320.5 L 207 315 L 209 304.5 L 208 302.5 L 209 296.5 L 208 294.5 L 208 292.5 L 209.5 287 Z " /><path fill="rgb(49,49,49)" stroke="rgb(49,49,49)" stroke-width="0.3" opacity="0.996078431372549" d="M 194.5 295 Q 198.7 293.7 197 298.5 L 195 312 L 204.5 308 L 205 311.5 L 191 317 L 184.5 331 L 181 332 L 187 319.5 L 183.5 319 L 169.5 325 L 168 322.5 L 192 314 L 191 309.5 L 192 306.5 L 193 301 L 179.5 309 L 182 305.5 L 179.5 303 L 172.5 306 L 172 303.5 L 184.5 298 L 189.5 299 L 194.5 295 Z " /><path fill="rgb(49,49,49)" stroke="rgb(49,49,49)" stroke-width="0.3" opacity="0.996078431372549" d="M 330.5 322 L 332 326.5 L 328 337.5 L 329 340 L 332 341.5 L 333.5 343 L 343 347 L 341.5 350 L 339.5 350 L 326 344 L 322.5 354 L 317.5 347 L 311 345 L 305.5 354 L 305 350.5 L 314.5 330 L 317 331 L 315 341 L 323 345 L 326 327.5 L 330.5 322 Z " /><path fill="rgb(49,49,49)" stroke="rgb(49,49,49)" stroke-width="0.3" opacity="0.996078431372549" d="M 77 411 L 83 414.5 L 84 438.5 L 79.5 453 Q 76.5 453.5 78 446.5 L 80 419.5 L 77 411 Z " /><path fill="rgb(49,49,49)" stroke="rgb(49,49,49)" stroke-width="0.3" opacity="0.996078431372549" d="M 204.5 413 L 208 419.5 L 209 444.5 L 208 448.5 L 208 450.5 L 206 458.5 L 207 465.5 L 206 475.5 L 207 477.5 L 190.5 482 L 189 475.5 L 190 473.5 L 187 464 L 199.5 462 L 204 458.5 L 206 449.5 L 203 414.5 L 204.5 413 Z M 202 464 L 195 467 L 193 468 L 193 478 L 200 477 L 203 467 L 202 464 Z " /><path fill="rgb(49,49,49)" stroke="rgb(49,49,49)" stroke-width="0.3" opacity="0.996078431372549" d="M 315.5 416 L 318 417.5 L 313 426.5 L 320.5 430 L 326.5 416 L 328 419.5 L 325 428 L 334 433.5 Q 332.3 438.8 337.5 437 L 341 438.5 L 326 443.5 L 327 448.5 L 325 456.5 L 329.5 458 L 332.5 457 Q 336 459 331.5 461 L 315 466.5 L 316 474 L 337 467 L 336 472 L 314.5 478 L 308 464.5 L 322 460 L 322 447.5 L 324 443 L 315 444 L 316 456.5 L 315 459 L 312 459 L 312 451.5 L 311 448.5 L 312 446.5 L 309.5 445 L 294.5 449 L 293 446.5 L 315 437.5 L 317 433 L 310.5 431 L 306 439 L 302 437.5 L 315.5 416 Z M 322 433 L 322 435 L 318 440 L 328 438 Q 332 439 330 435 L 322 433 Z " /><path fill="rgb(49,49,49)" stroke="rgb(49,49,49)" stroke-width="0.3" opacity="0.996078431372549" d="M 64.5 418 L 67 418.5 L 67 429.5 L 66 434 L 49 436 L 49 443.5 L 50.5 444 L 52.5 445 L 75 442 L 74 446 L 57.5 449 L 55.5 449 L 46 446.5 L 41 433 L 62 429.5 L 63 427.5 L 63 425.5 L 62.5 423 L 54.5 423 L 51.5 424 L 40.5 424 L 40 421 L 56.5 419 L 58.5 420 L 64.5 418 Z " /><path fill="rgb(49,49,49)" stroke="rgb(49,49,49)" stroke-width="0.3" opacity="0.996078431372549" d="M 178 424 L 182 425.5 L 183 430.5 L 181 434.5 L 185.5 435 L 197.5 430 L 199 432.5 L 178 439 L 180 430.5 L 178 424 Z " /><path fill="rgb(49,49,49)" stroke="rgb(49,49,49)" stroke-width="0.3" opacity="0.996078431372549" d="M 199.5 435 L 203 436.5 L 201.5 439 L 188 443 L 190 451.5 L 186.5 459 L 184 456.5 L 186 449.5 L 185 446.5 L 186 444 L 171.5 447 L 169 445.5 L 199.5 435 Z " /><path fill="rgb(49,49,49)" stroke="rgb(49,49,49)" stroke-width="0.3" opacity="0.996078431372549" d="M 77.5 456 L 81 457.5 L 80 471.5 L 81 477 L 54 479 L 57 471.5 L 55 464.5 L 55.5 463 L 50.5 464 Q 45.5 461.5 50.5 459 L 57.5 458 L 59.5 458 L 77.5 456 Z M 74 461 L 57 463 L 61 475 L 75 474 L 76 471 L 77 468 L 77 461 L 74 461 Z " /><path fill="rgb(49,49,49)" stroke="rgb(49,49,49)" stroke-width="0.3" opacity="0.996078431372549" d="M 48.5 477 L 49 479 L 47 478.5 L 48.5 477 Z " /><path fill="rgb(49,49,49)" stroke="rgb(49,49,49)" stroke-width="0.3" opacity="0.996078431372549" d="M 333.5 535 L 336 536.5 L 340 565.5 L 337 586 Q 332.5 587.8 334 582.5 L 335 570.5 L 333.5 571 L 315.5 579 L 292 585 L 293.5 580 L 311.5 576 L 315 572.5 L 313.5 565 L 298 572 L 297 567.5 L 299 557 L 297 554.5 L 296 551.5 L 297 548 Q 302.3 546.2 300 553.5 L 301 556 L 307 554 L 308 550.5 L 306 542.5 L 307 540 L 309.5 539 L 311 557.5 L 314.5 565 L 316 562.5 L 312 539.5 L 315.5 538 L 317 553 L 324 550.5 L 321 537.5 L 324.5 536 L 327 539.5 L 328 565 L 319 567 L 318 573 L 336 567 L 336 553.5 L 332 536.5 L 333.5 535 Z M 307 557 L 305 559 L 303 565 L 307 564 L 308 562 L 307 557 Z M 322 557 L 321 558 L 319 562 L 322 563 L 323 561 L 322 557 Z " /><path fill="rgb(49,49,49)" stroke="rgb(49,49,49)" stroke-width="0.3" opacity="0.996078431372549" d="M 203.5 537 L 207 538.5 L 211 564.5 L 210 578.5 L 207.5 582 L 205 583.5 L 204 585.5 L 204 587.5 Q 202.8 594.8 207.5 596 L 220 603 L 218.5 607 L 203.5 597 L 198.5 609 L 191.5 607 L 183 610 L 180.5 601 L 177 600 L 178.5 595 L 191 593.5 L 192 591.5 L 190.5 588 L 179.5 592 L 177 588.5 L 180.5 586 L 184.5 587 L 191 583.5 L 192.5 581 Q 196.8 585.2 195 595.5 L 186 601 L 187.5 605 L 199 601.5 L 199 590.5 L 205 580.5 L 207 566.5 L 206 563.5 L 207 557.5 L 205 543.5 L 202 538.5 L 203.5 537 Z " /><path fill="rgb(49,49,49)" stroke="rgb(49,49,49)" stroke-width="0.3" opacity="0.996078431372549" d="M 73 538 L 77 539.5 L 79 566.5 L 78 568.5 L 78 570.5 L 78 583.5 L 80.5 584 L 84 583 L 81.5 606 L 79 605.5 L 79 590.5 L 80 587 L 68.5 590 L 67 586.5 L 69.5 585 L 72.5 586 L 74 582.5 L 75 576.5 L 74 574.5 L 75 568 L 41.5 580 L 40 577.5 L 75 564 L 76 558.5 L 73 538 Z " /><path fill="rgb(49,49,49)" stroke="rgb(49,49,49)" stroke-width="0.3" opacity="0.996078431372549" d="M 191.5 542 L 193 546.5 L 187.5 556 L 178 560.5 L 179.5 563 L 192.5 557 L 194.5 557 L 197 558.5 L 174 567 L 175 558.5 L 174 555.5 L 187 550.5 L 186.5 548 L 174.5 552 L 177.5 548 L 191.5 542 Z " /><path fill="rgb(49,49,49)" stroke="rgb(49,49,49)" stroke-width="0.3" opacity="0.996078431372549" d="M 61.5 544 L 63 550.5 L 58.5 559 L 51 562.5 L 54.5 564 L 69 559 L 67.5 562 L 49.5 570 L 47 564.5 L 48 559.5 L 47 556.5 L 49.5 555 L 53.5 557 L 58 553.5 L 59 550 L 48.5 553 L 48.5 550 L 61.5 544 Z " /><path fill="rgb(49,49,49)" stroke="rgb(49,49,49)" stroke-width="0.3" opacity="0.996078431372549" d="M 198.5 563 L 204 564.5 L 201.5 566 L 186 571 L 189 578.5 L 185.5 583 L 183 581.5 L 184 572 L 167.5 577 L 167.5 574 L 198.5 563 Z " /><path fill="rgb(49,49,49)" stroke="rgb(49,49,49)" stroke-width="0.3" opacity="0.996078431372549" d="M 322.5 581 L 325 582.5 L 327.5 590 L 331 590.5 L 327 595.5 L 346 608.5 L 344.5 610 L 324.5 600 L 315.5 611 Q 310.7 612.7 312 608.5 L 319 599 L 322 597.5 L 320.5 595 L 313.5 598 L 312 595 L 322 592 L 321 586.5 L 321 584.5 L 322.5 581 Z " /><path fill="rgb(49,49,49)" stroke="rgb(49,49,49)" stroke-width="0.3" opacity="0.996078431372549" d="M 61.5 582 L 66 583.5 Q 66 592.5 59.5 595 L 54 597 L 56 605 L 75 601 L 73.5 605 L 51 610 L 52 603.5 L 46 599.5 L 48.5 596 L 50 594.5 L 61 588.5 L 57.5 587 L 51.5 589 L 50 585 L 61.5 582 Z " /><path fill="rgb(252,252,252)" stroke="rgb(252,252,252)" stroke-width="0.3" opacity="0.996078431372549" d="M 0 0 L 383 0 L 383 629 L 0 629 L 0 0 Z M 330 25 L 327 29 L 328 37 L 328 39 L 330 44 L 325 45 L 323 48 L 324 50 L 331 48 L 329 75 L 321 77 L 316 76 L 314 77 L 312 79 L 316 81 L 320 95 L 334 91 L 333 76 L 331 74 L 335 51 L 332 35 L 333 30 L 330 25 Z M 207 30 L 208 37 L 207 56 L 205 56 L 191 64 L 189 64 L 190 58 L 204 54 L 205 50 L 167 64 L 169 66 L 186 60 L 185 67 L 179 75 L 182 76 L 190 65 L 192 68 L 203 61 L 208 64 L 206 71 L 192 76 L 181 77 L 179 80 L 183 81 L 202 76 L 205 78 L 201 90 L 203 94 L 211 70 L 212 52 L 211 32 L 207 30 Z M 77 32 L 75 34 L 76 51 L 42 64 L 39 69 L 51 67 L 57 63 L 54 72 L 56 79 L 55 87 L 49 96 L 52 97 L 58 90 L 68 97 L 70 90 L 73 89 L 75 91 L 87 95 L 92 93 L 84 91 L 73 84 L 73 76 L 72 75 L 68 80 L 67 90 L 64 88 L 58 75 L 61 62 L 74 55 L 76 53 L 76 69 L 74 71 L 77 73 L 79 71 L 80 59 L 79 37 L 77 32 Z M 312 34 L 305 50 L 295 59 L 299 60 L 308 50 L 320 55 L 323 59 L 324 56 L 311 46 L 314 36 L 312 34 Z M 188 38 L 178 44 L 179 46 L 178 50 L 180 57 L 191 54 L 196 49 L 196 41 Q 195 37 188 38 Z M 63 40 L 47 48 L 45 51 L 61 45 L 59 54 L 63 55 L 65 42 L 63 40 Z M 84 149 L 82 151 L 85 168 L 81 171 L 78 158 L 75 155 L 71 160 L 73 160 L 76 165 L 77 173 L 76 185 L 75 188 L 77 191 L 81 176 L 85 173 L 87 175 L 86 187 L 82 192 L 84 197 L 91 181 L 86 152 L 84 149 Z M 313 159 L 299 164 L 299 167 L 310 164 L 311 165 L 306 174 L 300 179 L 298 181 L 302 182 L 311 172 L 316 179 L 317 189 L 315 191 L 302 193 L 300 193 L 296 194 L 294 198 L 297 199 L 317 193 L 334 192 L 339 189 L 339 191 L 342 192 L 349 191 L 340 188 L 319 190 L 320 180 L 324 175 L 323 173 L 326 170 L 328 159 L 321 162 L 319 163 L 319 159 L 313 159 Z M 65 161 L 55 165 L 43 187 L 48 185 L 56 170 L 63 166 L 55 183 L 57 185 L 61 177 L 71 183 L 72 180 L 64 173 L 68 163 L 65 161 Z M 201 161 L 203 187 L 171 198 L 169 201 L 204 189 L 203 202 L 187 208 L 184 212 L 202 208 L 201 211 L 203 223 L 206 210 L 205 203 L 208 195 L 205 172 L 201 161 Z M 189 164 L 188 168 L 188 170 L 190 173 L 189 175 L 183 178 L 180 177 L 178 175 L 179 172 L 176 170 L 175 173 L 177 181 L 176 187 L 178 191 L 192 184 L 191 178 L 192 172 L 191 166 L 189 164 Z M 328 174 L 326 176 L 330 176 L 328 174 Z M 330 193 L 328 195 L 330 205 L 315 207 L 313 211 L 316 212 L 343 206 L 344 203 L 336 205 L 333 194 L 330 193 Z M 80 197 L 59 205 L 61 207 L 67 205 L 72 206 L 61 218 L 64 220 L 71 212 L 86 217 L 93 216 L 78 211 L 73 206 L 81 199 L 80 197 Z M 305 202 L 303 204 L 305 207 L 304 222 L 325 217 L 329 223 L 332 224 L 343 217 L 342 208 L 308 218 L 309 211 L 308 204 L 305 202 Z M 83 280 L 85 293 L 82 325 L 63 331 L 57 333 L 60 334 L 62 338 L 63 352 L 84 350 Q 87 348 82 346 L 82 332 L 85 329 L 84 326 L 89 307 L 87 282 L 83 280 Z M 75 282 L 72 285 L 74 293 L 55 299 L 53 297 L 49 295 L 48 298 L 50 301 L 49 315 L 52 316 L 64 312 L 63 309 L 75 303 L 73 312 L 74 314 L 73 316 L 75 321 L 78 312 L 77 284 L 75 282 Z M 326 284 L 307 292 L 303 297 L 312 294 L 313 298 L 312 308 L 307 310 L 307 313 L 319 309 L 318 315 L 318 317 L 319 321 L 302 327 L 300 330 L 301 332 L 331 320 L 341 319 L 346 310 L 324 320 L 322 310 L 323 306 L 332 304 L 325 302 L 323 298 L 328 287 L 326 284 Z M 210 287 L 208 293 L 208 295 L 209 297 L 208 303 L 209 305 L 207 315 L 192 321 L 194 324 L 207 318 L 208 321 L 205 333 L 185 339 L 183 342 L 200 338 L 203 339 L 201 350 L 203 352 L 206 346 L 205 344 L 211 327 L 212 309 L 212 290 L 210 287 Z M 195 295 L 190 299 L 185 298 L 172 304 L 173 306 L 180 303 L 182 306 L 181 308 L 193 301 L 192 307 L 191 310 L 192 314 L 168 323 L 170 325 L 184 319 L 187 320 L 181 332 L 185 331 L 191 317 L 205 312 L 205 308 L 195 312 L 197 299 Q 199 294 195 295 Z M 180 308 L 180 309 L 180 308 Z M 331 322 L 326 328 L 323 345 L 315 341 L 317 331 L 315 330 L 305 351 L 306 354 L 311 345 L 318 347 L 323 354 L 326 344 L 340 350 L 342 350 L 343 347 L 334 343 L 332 342 L 329 340 L 328 338 L 332 327 L 331 322 Z M 77 411 L 80 420 L 78 447 Q 76 453 80 453 L 84 439 L 83 415 L 77 411 Z M 205 413 L 203 415 L 206 450 L 204 459 L 200 462 L 187 464 L 190 474 L 189 476 L 191 482 L 207 478 L 206 476 L 207 466 L 206 459 L 208 451 L 208 449 L 209 445 L 208 420 L 205 413 Z M 316 416 L 302 438 L 306 439 L 311 431 L 317 433 L 315 438 L 293 447 L 295 449 L 310 445 L 312 447 L 311 449 L 312 452 L 312 459 L 315 459 L 316 457 L 315 444 L 324 443 L 322 448 L 322 460 L 308 465 L 315 478 L 336 472 L 337 467 L 316 474 L 315 467 L 332 461 Q 336 459 333 457 L 330 458 L 325 457 L 327 449 L 326 444 L 341 439 L 338 437 Q 332 439 334 434 L 325 428 L 328 420 L 327 416 L 321 430 L 313 427 L 318 418 L 316 416 Z M 65 418 L 59 420 L 57 419 L 40 421 L 41 424 L 52 424 L 55 423 L 63 423 L 63 426 L 63 428 L 62 430 L 41 433 L 46 447 L 56 449 L 58 449 L 74 446 L 75 442 L 53 445 L 51 444 L 49 444 L 49 436 L 66 434 L 67 430 L 67 419 L 65 418 Z M 178 424 L 180 431 L 178 439 L 199 433 L 198 430 L 186 435 L 181 435 L 183 431 L 182 426 L 178 424 Z M 200 435 L 169 446 L 172 447 L 186 444 L 185 447 L 186 450 L 184 457 L 187 459 L 190 452 L 188 443 L 202 439 L 203 437 L 200 435 Z M 78 456 L 60 458 L 58 458 L 51 459 Q 46 462 51 464 L 56 463 L 55 465 L 57 472 L 54 479 L 81 477 L 80 472 L 81 458 L 78 456 Z M 49 477 L 47 479 L 49 479 L 49 477 Z M 334 535 L 332 537 L 336 554 L 336 567 L 318 573 L 319 567 L 328 565 L 327 540 L 325 536 L 321 538 L 324 551 L 317 553 L 316 538 L 312 540 L 316 563 L 314 566 L 315 573 L 312 576 L 294 580 L 292 585 L 316 579 L 334 571 L 335 571 L 334 583 Q 333 588 337 586 L 340 566 L 336 537 L 334 535 Z M 204 537 L 202 539 L 205 544 L 207 558 L 206 564 L 207 567 L 205 581 L 199 591 L 199 602 L 188 605 L 186 601 L 195 596 Q 197 585 193 581 L 191 584 L 185 587 L 181 586 L 177 589 L 180 592 L 191 588 L 192 592 L 191 594 L 179 595 L 177 600 L 181 601 L 183 610 L 192 607 L 199 609 L 204 597 L 219 607 L 220 603 L 208 596 Q 203 595 204 588 L 204 586 L 205 584 L 208 582 L 210 579 L 211 565 L 207 539 L 204 537 Z M 73 538 L 76 559 L 75 564 L 40 578 L 42 580 L 75 568 L 74 575 L 75 577 L 74 583 L 73 586 L 70 585 L 67 587 L 69 590 L 80 587 L 79 591 L 79 606 L 82 606 L 84 583 L 81 584 L 78 584 L 78 571 L 78 569 L 79 567 L 77 540 L 73 538 Z M 310 539 L 307 540 L 306 543 L 308 551 L 307 554 L 301 556 L 300 554 Q 302 546 297 548 L 296 552 L 297 555 L 299 557 L 297 568 L 298 572 L 314 565 L 311 558 L 310 539 Z M 192 542 L 178 548 L 175 552 L 187 548 L 187 551 L 174 556 L 175 559 L 174 567 L 197 559 L 195 557 L 193 557 L 180 563 L 178 561 L 188 556 L 193 547 L 192 542 Z M 62 544 L 49 550 L 49 553 L 59 550 L 58 554 L 54 557 L 50 555 L 47 557 L 48 560 L 47 565 L 50 570 L 68 562 L 69 559 L 55 564 L 51 563 L 59 559 L 63 551 L 62 544 Z M 199 563 L 168 574 L 168 577 L 184 572 L 183 582 L 186 583 L 189 579 L 186 571 L 202 566 L 204 565 L 199 563 Z M 323 581 L 321 585 L 321 587 L 322 592 L 312 595 L 314 598 L 321 595 L 322 598 L 319 599 L 312 609 Q 311 613 316 611 L 325 600 L 345 610 L 346 609 L 327 596 L 331 591 L 328 590 L 325 583 L 323 581 Z M 62 582 L 50 585 L 52 589 L 58 587 L 61 589 L 50 595 L 49 596 L 46 600 L 52 604 L 51 610 L 74 605 L 75 601 L 56 605 L 54 597 L 60 595 Q 66 592 66 584 L 62 582 Z " /><path fill="rgb(252,252,252)" stroke="rgb(252,252,252)" stroke-width="0.3" opacity="0.996078431372549" d="M 186.5 42 L 192 43.5 Q 193.3 50.8 188.5 52 L 181 53 L 183 44 L 186.5 42 Z " /><path fill="rgb(252,252,252)" stroke="rgb(252,252,252)" stroke-width="0.3" opacity="0.996078431372549" d="M 324.5 79 L 329 79 L 329 87.5 L 321.5 91 L 320 80 L 324.5 79 Z " /><path fill="rgb(252,252,252)" stroke="rgb(252,252,252)" stroke-width="0.3" opacity="0.996078431372549" d="M 317.5 165 L 322 166.5 L 320 174 L 312 170.5 L 314.5 167 L 317.5 165 Z " /><path fill="rgb(252,252,252)" stroke="rgb(252,252,252)" stroke-width="0.3" opacity="0.996078431372549" d="M 186.5 179 L 188 183 L 180 186 L 182.5 181 L 186.5 179 Z " /><path fill="rgb(252,252,252)" stroke="rgb(252,252,252)" stroke-width="0.3" opacity="0.996078431372549" d="M 334.5 212 L 341 213.5 L 338.5 218 L 333.5 221 L 330 215.5 L 334.5 212 Z " /><path fill="rgb(252,252,252)" stroke="rgb(252,252,252)" stroke-width="0.3" opacity="0.996078431372549" d="M 317.5 291 L 320 291.5 L 320 299.5 L 317.5 305 L 316 303.5 L 317 296.5 L 316 292.5 L 317.5 291 Z " /><path fill="rgb(252,252,252)" stroke="rgb(252,252,252)" stroke-width="0.3" opacity="0.996078431372549" d="M 72.5 297 L 74 298.5 L 56 307.5 L 58 310.5 L 53.5 312 L 53 309.5 L 54 301 L 59.5 302 L 72.5 297 Z " /><path fill="rgb(252,252,252)" stroke="rgb(252,252,252)" stroke-width="0.3" opacity="0.996078431372549" d="M 60.5 308 L 62 308.5 L 60.5 309 L 60.5 308 Z " /><path fill="rgb(252,252,252)" stroke="rgb(252,252,252)" stroke-width="0.3" opacity="0.996078431372549" d="M 75.5 331 Q 80.3 329.3 79 333.5 L 77 346 L 67.5 348 L 65 334.5 L 75.5 331 Z " /><path fill="rgb(252,252,252)" stroke="rgb(252,252,252)" stroke-width="0.3" opacity="0.996078431372549" d="M 322 433 L 330 435 Q 331.7 439.1 327.5 438 L 317.5 440 L 322 434.5 L 322 433 Z " /><path fill="rgb(252,252,252)" stroke="rgb(252,252,252)" stroke-width="0.3" opacity="0.996078431372549" d="M 73.5 461 L 77 461 L 77 467.5 L 76 470.5 L 74.5 474 L 60.5 475 L 57 463 L 73.5 461 Z " /><path fill="rgb(252,252,252)" stroke="rgb(252,252,252)" stroke-width="0.3" opacity="0.996078431372549" d="M 201.5 464 L 203 466.5 L 199.5 477 L 193 478 L 193 467.5 L 194.5 467 L 201.5 464 Z " /><path fill="rgb(252,252,252)" stroke="rgb(252,252,252)" stroke-width="0.3" opacity="0.996078431372549" d="M 306.5 557 L 308 561.5 L 307 564 L 303 565 L 304.5 559 L 306.5 557 Z " /><path fill="rgb(252,252,252)" stroke="rgb(252,252,252)" stroke-width="0.3" opacity="0.996078431372549" d="M 321.5 557 L 323 560.5 L 322 563 L 319 561.5 L 320.5 558 L 321.5 557 Z " /></svg>