<svg width="109" height="126" version="1.1" xmlns="http://www.w3.org/2000/svg" desc="Created with imagetracer.js version 1.2.1" ><path fill="rgb(52,52,52)" stroke="rgb(52,52,52)" stroke-width="0.1" opacity="0.996078431372549" d="M 52.1 32 L 54 32.6 L 54 34.9 L 51.8 42.6 L 52.3 43.8 L 56.9 46 L 58.8 44.6 L 61.8 39.1 L 62 35.9 L 63.1 34 L 64.8 33.8 L 65 36.6 L 63.3 40.4 L 63.3 42.1 L 64.6 43.8 L 71 49.1 L 71.5 50.6 Q 71 52.3 68.4 52 L 62.4 48.3 L 60.4 48.3 L 54.9 55.8 L 53.4 56.3 L 52.3 55.6 L 53 52.4 L 54.8 50.1 L 54.5 49.5 L 48.1 46.8 L 47 47.4 L 43.8 54 L 43.3 54.6 L 41.4 57.3 L 40.4 57.5 Q 39.1 57.1 39.5 54.9 L 42 49.6 L 47.8 41.6 L 51 32.5 L 52.1 32 Z " /><path fill="rgb(52,52,52)" stroke="rgb(52,52,52)" stroke-width="0.1" opacity="0.996078431372549" d="M 75.9 56 L 78.4 56 L 79 56.6 L 77.9 59.3 L 75.1 60.8 L 57.9 64 L 45.6 68.3 L 39.4 68.8 L 34.9 70.8 L 32.9 70.8 L 31.8 69 L 31.3 68.6 L 31 67.1 L 32.1 65.8 L 35.6 64.8 L 46.9 64 L 56.6 61 L 70.6 58 L 75.9 56 Z " /><path fill="rgb(52,52,52)" stroke="rgb(52,52,52)" stroke-width="0.1" opacity="0.996078431372549" d="M 64.9 71.5 L 67.5 72.6 L 66.4 74.8 L 52.5 81.6 L 52.3 83.4 L 53.9 83.8 L 58.6 81.5 L 66.6 79 L 69.6 78.8 L 70.8 79.6 L 71 80.6 L 69.9 82 L 59.9 85 L 52.3 88.6 L 52 89.6 L 52.9 90.8 L 54.6 91 L 66.6 87.8 L 70.4 85.3 L 72.6 84.8 L 73.5 85.4 L 74 86.6 L 72.1 88.8 L 64.1 92 L 52.9 94.5 L 49 93.6 L 48 90.1 L 49 87.1 L 49 83.6 L 47.9 82.3 L 44.3 79.9 L 45.6 78 L 47.6 77.3 L 54.6 76.8 L 64.9 71.5 Z " /></svg>