<svg width="12" height="12" version="1.1" xmlns="http://www.w3.org/2000/svg" desc="Created with imagetracer.js version 1.2.1" ><path fill="rgb(255,255,0)" stroke="rgb(255,255,0)" stroke-width="1" opacity="1" d="M 4.5 1 Q 10.3 0.3 11 4.5 Q 11.8 10.3 7.5 11 Q 1.8 11.8 1 7.5 Q 0.3 1.8 4.5 1 Z M 3 4 Q 2 7 5 6 Q 6 3 3 4 Z M 7 4 Q 6 7 9 6 Q 10 3 7 4 Z M 4 7 Q 3 8 4 8 Q 5 8 4 7 Z M 9 7 Q 8 8 9 8 Q 10 8 9 7 Z M 5 8 Q 4 9 5 9 Q 7 10 8 9 Q 7 7 5 8 Z " /><path fill="rgb(0,0,0)" stroke="rgb(0,0,0)" stroke-width="1" opacity="1" d="M 0 0 L 0.5 0 L 11.5 0 L 12 0 L 12 0.5 L 12 11.5 L 12 12 L 11.5 12 L 0.5 12 L 0 12 L 0 11.5 L 0 0.5 L 0 0 Z M 5 1 Q 0 2 1 8 Q 2 12 8 11 Q 12 10 11 5 Q 10 0 5 1 Z " /><path fill="rgb(0,0,0)" stroke="rgb(0,0,0)" stroke-width="1" opacity="1" d="M 3 4 Q 6 3 5 6 Q 2 7 3 4 Z " /><path fill="rgb(0,0,0)" stroke="rgb(0,0,0)" stroke-width="1" opacity="1" d="M 7 4 Q 10 3 9 6 Q 6 7 7 4 Z " /><path fill="rgb(0,0,0)" stroke="rgb(0,0,0)" stroke-width="1" opacity="1" d="M 3.5 7 Q 4.3 8.7 7.5 8 Q 8.2 6.2 9 7.5 Q 8.3 9.8 4.5 9 Q 2 8 3.5 7 Z " /></svg>